<?xml version="1.0" standalone="yes"?>
<svg xmlns="http://www.w3.org/2000/svg" width="44" height="40">
<path style="fill:#ffffff; stroke:none;" d="M0 0L0 11C7.00494 8.45086 13.2626 4.14562 20 1C14.2853 -1.39797 6.16917 0 0 0z"/>
<path style="fill:#050505; stroke:none;" d="M20 0L21 1L20 0z"/>
<path style="fill:#3b352d; stroke:none;" d="M21.6667 0.333332C21.2222 0.777798 22.2778 0.722214 22.3333 0.666668C22.7778 0.222229 21.7222 0.277775 21.6667 0.333332z"/>
<path style="fill:#010101; stroke:none;" d="M23 0L24 1L23 0z"/>
<path style="fill:#ffffff; stroke:none;" d="M24 0C28.8164 4.86771 37.4413 9.07077 44 11L44 0L24 0z"/>
<path style="fill:#030301; stroke:none;" d="M18 1L19 2L18 1z"/>
<path style="fill:#4d453b; stroke:none;" d="M19 1L20 2L19 1z"/>
<path style="fill:#c7b399; stroke:none;" d="M1 11C5.43953 14.8573 15.9394 22.1868 22 21.9444C28.4925 21.6848 36.5426 15.2184 42 12C37.7306 8.00286 27.0571 0.826622 21 1.49846C14.2465 2.24754 7.27957 8.38559 1 11z"/>
<path style="fill:#2b2721; stroke:none;" d="M24 1L25 2L24 1z"/>
<path style="fill:#010101; stroke:none;" d="M16 2L17 3L16 2z"/>
<path style="fill:#3b352f; stroke:none;" d="M17 2L18 3L17 2z"/>
<path style="fill:#1d1b17; stroke:none;" d="M26 2L27 3L26 2z"/>
<path style="fill:#2b2721; stroke:none;" d="M15 3L16 4L15 3z"/>
<path style="fill:#8b7d6b; stroke:none;" d="M27 3L28 4L27 3z"/>
<path style="fill:#13110d; stroke:none;" d="M28 3L29 4L28 3z"/>
<path style="fill:#1d1b17; stroke:none;" d="M13 4L14 5L13 4z"/>
<path style="fill:#75695b; stroke:none;" d="M29 4L30 5L29 4z"/>
<path style="fill:#090907; stroke:none;" d="M30 4L31 5L30 4z"/>
<path style="fill:#13110f; stroke:none;" d="M11 5L12 6L11 5z"/>
<path style="fill:#8b7d6b; stroke:none;" d="M12 5L13 6L12 5z"/>
<path style="fill:#5d5347; stroke:none;" d="M31 5L32 6L31 5z"/>
<path style="fill:#050503; stroke:none;" d="M32 5L33 6L32 5z"/>
<path style="fill:#0b0907; stroke:none;" d="M9 6L10 7L9 6z"/>
<path style="fill:#776b5b; stroke:none;" d="M10 6L11 7L10 6z"/>
<path style="fill:#4b4339; stroke:none;" d="M33 6L34 7L33 6z"/>
<path style="fill:#010101; stroke:none;" d="M34 6L35 7L34 6z"/>
<path style="fill:#050503; stroke:none;" d="M7 7L8 8L7 7z"/>
<path style="fill:#5f5549; stroke:none;" d="M8 7L9 8L8 7z"/>
<path style="fill:#39332b; stroke:none;" d="M35 7L36 8L35 7z"/>
<path style="fill:#010101; stroke:none;" d="M36 7L37 8L36 7M5 8L6 9L5 8z"/>
<path style="fill:#4b433b; stroke:none;" d="M6 8L7 9L6 8z"/>
<path style="fill:#29251f; stroke:none;" d="M37 8L38 9L37 8z"/>
<path style="fill:#010101; stroke:none;" d="M3 9L4 10L3 9z"/>
<path style="fill:#39332d; stroke:none;" d="M4 9L5 10L4 9z"/>
<path style="fill:#1b1915; stroke:none;" d="M39 9L40 10L39 9z"/>
<path style="fill:#29251f; stroke:none;" d="M2 10L3 11L2 10z"/>
<path style="fill:#897b69; stroke:none;" d="M40 10L41 11L40 10z"/>
<path style="fill:#110f0d; stroke:none;" d="M41 10L42 11L41 10z"/>
<path style="fill:#070505; stroke:none;" d="M0 11L1 12L0 11z"/>
<path style="fill:#6b5f51; stroke:none;" d="M42 11L43 12L42 11z"/>
<path style="fill:#010101; stroke:none;" d="M43 11L44 12L43 11z"/>
<path style="fill:#ffffff; stroke:none;" d="M0 12L0 19C9.01193 17.1111 13.7595 25.8189 22 25.5116C30.2913 25.2024 34.9992 17.2167 44 19L44 12C37.6138 14.6595 28.4132 22.9921 21.4244 22.6636C14.583 22.342 6.28056 14.7063 0 12z"/>
<path style="fill:#0d0b09; stroke:none;" d="M1 12L2 13L1 12z"/>
<path style="fill:#7b6f5f; stroke:none;" d="M2 12L3 13L2 12z"/>
<path style="fill:#4f473d; stroke:none;" d="M41 12L42 13L41 12z"/>
<path style="fill:#030301; stroke:none;" d="M42 12L43 13L42 12z"/>
<path style="fill:#151311; stroke:none;" d="M3 13L4 14L3 13z"/>
<path style="fill:#938371; stroke:none;" d="M4 13L5 14L4 13z"/>
<path style="fill:#655b4f; stroke:none;" d="M39 13L40 14L39 13z"/>
<path style="fill:#050505; stroke:none;" d="M40 13L41 14L40 13z"/>
<path style="fill:#231f1b; stroke:none;" d="M5 14L6 15L5 14z"/>
<path style="fill:#7b6d5f; stroke:none;" d="M37 14L38 15L37 14z"/>
<path style="fill:#0d0b09; stroke:none;" d="M38 14L39 15L38 14z"/>
<path style="fill:#2f2923; stroke:none;" d="M6.66667 15.3333C6.22223 15.7778 7.27778 15.7222 7.33333 15.6667C7.77778 15.2222 6.72223 15.2778 6.66667 15.3333z"/>
<path style="fill:#91816f; stroke:none;" d="M35 15L36 16L35 15z"/>
<path style="fill:#151311; stroke:none;" d="M36 15L37 16L36 15z"/>
<path style="fill:#010101; stroke:none;" d="M8 16L9 17L8 16z"/>
<path style="fill:#3f3931; stroke:none;" d="M9 16L10 17L9 16z"/>
<path style="fill:#211d19; stroke:none;" d="M34 16L35 17L34 16z"/>
<path style="fill:#13110f; stroke:none;" d="M3.66667 17.3333C3.22222 17.7778 4.27778 17.7222 4.33333 17.6667C4.77777 17.2222 3.72222 17.2778 3.66667 17.3333z"/>
<path style="fill:#030303; stroke:none;" d="M10 17L11 18L10 17z"/>
<path style="fill:#554b41; stroke:none;" d="M11 17L12 18L11 17z"/>
<path style="fill:#010101; stroke:none;" d="M32.6667 17.3333C32.2222 17.7778 33.2778 17.7222 33.3333 17.6667C33.7778 17.2222 32.7222 17.2778 32.6667 17.3333z"/>
<path style="fill:#110f0d; stroke:none;" d="M38.6667 17.3333C38.2222 17.7778 39.2778 17.7222 39.3333 17.6667C39.7778 17.2222 38.7222 17.2778 38.6667 17.3333z"/>
<path style="fill:#25211b; stroke:none;" d="M2 18L3 19L2 18z"/>
<path style="fill:#c7b399; stroke:none;" d="M2 19C5.55993 23.1529 16.2984 30.3702 22 30.108C28.3987 29.8138 36.6594 23.2686 42 20C35.3773 15.984 28.8252 25.6715 22 25.9444C14.7876 26.2329 9.59564 18.1088 2 19z"/>
<path style="fill:#8d7d6d; stroke:none;" d="M5 18L6 19L5 18z"/>
<path style="fill:#13110f; stroke:none;" d="M6 18L7 19L6 18z"/>
<path style="fill:#070505; stroke:none;" d="M12 18L13 19L12 18z"/>
<path style="fill:#675d4f; stroke:none;" d="M13 18L14 19L13 18z"/>
<path style="fill:#3f372f; stroke:none;" d="M30 18L31 19L30 18z"/>
<path style="fill:#010101; stroke:none;" d="M31 18L32 19L31 18z"/>
<path style="fill:#2d2923; stroke:none;" d="M37 18L38 19L37 18z"/>
<path style="fill:#817363; stroke:none;" d="M40 18L41 19L40 18z"/>
<path style="fill:#0d0d0b; stroke:none;" d="M41 18L42 19L41 18z"/>
<path style="fill:#070705; stroke:none;" d="M0 19L1 20L0 19z"/>
<path style="fill:#958573; stroke:none;" d="M1 19L2 20L1 19z"/>
<path style="fill:#796d5d; stroke:none;" d="M7 19L8 20L7 19z"/>
<path style="fill:#0b0b09; stroke:none;" d="M8 19L9 20L8 19z"/>
<path style="fill:#0d0d0b; stroke:none;" d="M14 19L15 20L14 19z"/>
<path style="fill:#7f7161; stroke:none;" d="M15 19L16 20L15 19z"/>
<path style="fill:#51493f; stroke:none;" d="M28 19L29 20L28 19z"/>
<path style="fill:#030301; stroke:none;" d="M29 19L30 20L29 19z"/>
<path style="fill:#1f1d19; stroke:none;" d="M35 19L36 20L35 19z"/>
<path style="fill:#63594d; stroke:none;" d="M42 19L43 20L42 19z"/>
<path style="fill:#010101; stroke:none;" d="M43 19L44 20L43 19z"/>
<path style="fill:#ffffff; stroke:none;" d="M0 20L0 27C9.05052 24.9887 13.6649 33.8224 22 33.5116C29.8219 33.2199 34.645 25.0477 43 27L43 29C35.5587 31.1478 29.1497 36.0233 22 39C28.2023 41.6026 37.2977 40 44 40L44 20C37.6138 22.6595 28.4132 30.9921 21.4244 30.6636C14.583 30.342 6.28056 22.7063 0 20z"/>
<path style="fill:#0f0d0b; stroke:none;" d="M1 20L2 21L1 20z"/>
<path style="fill:#857767; stroke:none;" d="M2 20L3 21L2 20z"/>
<path style="fill:#63574b; stroke:none;" d="M9 20L10 21L9 20z"/>
<path style="fill:#050503; stroke:none;" d="M10 20L11 21L10 20z"/>
<path style="fill:#171511; stroke:none;" d="M16 20L17 21L16 20z"/>
<path style="fill:#938371; stroke:none;" d="M17 20L18 21L17 20z"/>
<path style="fill:#675b4f; stroke:none;" d="M26 20L27 21L26 20z"/>
<path style="fill:#070505; stroke:none;" d="M27 20L28 21L27 20z"/>
<path style="fill:#13110f; stroke:none;" d="M33 20L34 21L33 20z"/>
<path style="fill:#8d7f6d; stroke:none;" d="M34 20L35 21L34 20z"/>
<path style="fill:#574f43; stroke:none;" d="M41 20L42 21L41 20z"/>
<path style="fill:#030303; stroke:none;" d="M42 20L43 21L42 20z"/>
<path style="fill:#191713; stroke:none;" d="M3 21L4 22L3 21z"/>
<path style="fill:#4d453b; stroke:none;" d="M11 21L12 22L11 21z"/>
<path style="fill:#030301; stroke:none;" d="M12 21L13 22L12 21z"/>
<path style="fill:#231f1b; stroke:none;" d="M18 21L19 22L18 21z"/>
<path style="fill:#7d6f61; stroke:none;" d="M24 21L25 22L24 21z"/>
<path style="fill:#0d0b09; stroke:none;" d="M25 21L26 22L25 21M31 21L32 22L31 21z"/>
<path style="fill:#796d5d; stroke:none;" d="M32 21L33 22L32 21z"/>
<path style="fill:#6d6155; stroke:none;" d="M39 21L40 22L39 21z"/>
<path style="fill:#090707; stroke:none;" d="M40 21L41 22L40 21z"/>
<path style="fill:#27231d; stroke:none;" d="M5 22L6 23L5 22z"/>
<path style="fill:#3b352d; stroke:none;" d="M13 22L14 23L13 22z"/>
<path style="fill:#010101; stroke:none;" d="M14 22L15 23L14 22M19 22L20 23L19 22z"/>
<path style="fill:#312b25; stroke:none;" d="M20 22L21 23L20 22z"/>
<path style="fill:#938371; stroke:none;" d="M22 22L23 23L22 22z"/>
<path style="fill:#171311; stroke:none;" d="M23 22L24 23L23 22z"/>
<path style="fill:#050505; stroke:none;" d="M29 22L30 23L29 22z"/>
<path style="fill:#63594d; stroke:none;" d="M30 22L31 23L30 22z"/>
<path style="fill:#817563; stroke:none;" d="M37 22L38 23L37 22z"/>
<path style="fill:#0f0d0b; stroke:none;" d="M38 22L39 23L38 22z"/>
<path style="fill:#010101; stroke:none;" d="M6 23L7 24L6 23z"/>
<path style="fill:#352f29; stroke:none;" d="M7 23L8 24L7 23z"/>
<path style="fill:#2b2721; stroke:none;" d="M15 23L16 24L15 23z"/>
<path style="fill:#010101; stroke:none;" d="M21 23L22 24L21 23z"/>
<path style="fill:#030301; stroke:none;" d="M27 23L28 24L27 23z"/>
<path style="fill:#4d453b; stroke:none;" d="M28 23L29 24L28 23z"/>
<path style="fill:#191513; stroke:none;" d="M36 23L37 24L36 23z"/>
<path style="fill:#010101; stroke:none;" d="M8 24L9 25L8 24z"/>
<path style="fill:#473f37; stroke:none;" d="M9 24L10 25L9 24z"/>
<path style="fill:#1d1b17; stroke:none;" d="M17 24L18 25L17 24z"/>
<path style="fill:#010101; stroke:none;" d="M25 24L26 25L25 24z"/>
<path style="fill:#3b352f; stroke:none;" d="M26 24L27 25L26 24z"/>
<path style="fill:#25211d; stroke:none;" d="M34 24L35 25L34 24z"/>
<path style="fill:#0f0f0d; stroke:none;" d="M4 25L5 26L4 25z"/>
<path style="fill:#050303; stroke:none;" d="M10 25L11 26L10 25z"/>
<path style="fill:#5b5147; stroke:none;" d="M11 25L12 26L11 25z"/>
<path style="fill:#8b7d6b; stroke:none;" d="M18 25L19 26L18 25z"/>
<path style="fill:#13110d; stroke:none;" d="M19 25L20 26L19 25z"/>
<path style="fill:#2b2721; stroke:none;" d="M24 25L25 26L24 25z"/>
<path style="fill:#352f29; stroke:none;" d="M32 25L33 26L32 25z"/>
<path style="fill:#010101; stroke:none;" d="M33 25L34 26L33 25z"/>
<path style="fill:#0d0d0b; stroke:none;" d="M38.6667 25.3333C38.2222 25.7778 39.2778 25.7222 39.3333 25.6667C39.7778 25.2222 38.7222 25.2778 38.6667 25.3333z"/>
<path style="fill:#211d19; stroke:none;" d="M2 26L3 27L2 26z"/>
<path style="fill:#c7b399; stroke:none;" d="M2 27C5.55993 31.1529 16.2984 38.3702 22 38.108C28.3987 37.8138 36.6594 31.2686 42 28C35.3773 23.984 28.8252 33.6715 22 33.9444C14.7876 34.2329 9.59564 26.1088 2 27z"/>
<path style="fill:#877967; stroke:none;" d="M5 26L6 27L5 26z"/>
<path style="fill:#0f0f0d; stroke:none;" d="M6 26L7 27L6 26z"/>
<path style="fill:#090707; stroke:none;" d="M12 26L13 27L12 26z"/>
<path style="fill:#716557; stroke:none;" d="M13 26L14 27L13 26z"/>
<path style="fill:#75695b; stroke:none;" d="M20 26L21 27L20 26z"/>
<path style="fill:#1d1b17; stroke:none;" d="M21.6667 26.3333C21.2222 26.7778 22.2778 26.7222 22.3333 26.6667C22.7778 26.2222 21.7222 26.2778 21.6667 26.3333z"/>
<path style="fill:#453d35; stroke:none;" d="M30 26L31 27L30 26z"/>
<path style="fill:#010101; stroke:none;" d="M31 26L32 27L31 26z"/>
<path style="fill:#29251f; stroke:none;" d="M37 26L38 27L37 26z"/>
<path style="fill:#796d5d; stroke:none;" d="M40 26L41 27L40 26z"/>
<path style="fill:#0b0b09; stroke:none;" d="M41 26L42 27L41 26z"/>
<path style="fill:#070505; stroke:none;" d="M0 27L1 28L0 27z"/>
<path style="fill:#8f7f6f; stroke:none;" d="M1 27L2 28L1 27z"/>
<path style="fill:#6f6355; stroke:none;" d="M7 27L8 28L7 27z"/>
<path style="fill:#090707; stroke:none;" d="M8 27L9 28L8 27z"/>
<path style="fill:#0f0f0d; stroke:none;" d="M14 27L15 28L14 27z"/>
<path style="fill:#877967; stroke:none;" d="M15 27L16 28L15 27z"/>
<path style="fill:#595145; stroke:none;" d="M28 27L29 28L28 27z"/>
<path style="fill:#030303; stroke:none;" d="M29 27L30 28L29 27z"/>
<path style="fill:#1b1915; stroke:none;" d="M35 27L36 28L35 27z"/>
<path style="fill:#5d5347; stroke:none;" d="M42 27L41 29C42.2627 28.0287 42.3919 28.3063 42 27z"/>
<path style="fill:#ffffff; stroke:none;" d="M0 28L0 40L21 40C15.4832 34.835 6.92735 30.985 0 28z"/>
<path style="fill:#13110f; stroke:none;" d="M1 28L2 29L1 28z"/>
<path style="fill:#8b7d6b; stroke:none;" d="M2 28L3 29L2 28z"/>
<path style="fill:#5b5147; stroke:none;" d="M9 28L10 29L9 28z"/>
<path style="fill:#050303; stroke:none;" d="M10 28L11 29L10 28z"/>
<path style="fill:#1b1915; stroke:none;" d="M16 28L17 29L16 28z"/>
<path style="fill:#6f6355; stroke:none;" d="M26 28L27 29L26 28z"/>
<path style="fill:#090707; stroke:none;" d="M27 28L28 29L27 28z"/>
<path style="fill:#110f0d; stroke:none;" d="M33 28L34 29L33 28z"/>
<path style="fill:#897b69; stroke:none;" d="M34 28L35 29L34 28z"/>
<path style="fill:#050503; stroke:none;" d="M42 28L43 29L42 28z"/>
<path style="fill:#1d1b17; stroke:none;" d="M3 29L4 30L3 29z"/>
<path style="fill:#473f37; stroke:none;" d="M11 29L12 30L11 29z"/>
<path style="fill:#010101; stroke:none;" d="M12 29L13 30L12 29z"/>
<path style="fill:#29251f; stroke:none;" d="M18 29L19 30L18 29z"/>
<path style="fill:#857767; stroke:none;" d="M24 29L25 30L24 29z"/>
<path style="fill:#0f0f0d; stroke:none;" d="M25 29L26 30L25 29z"/>
<path style="fill:#090707; stroke:none;" d="M31 29L32 30L31 29z"/>
<path style="fill:#736557; stroke:none;" d="M32 29L33 30L32 29z"/>
<path style="fill:#756959; stroke:none;" d="M39 29L40 30L39 29z"/>
<path style="fill:#090907; stroke:none;" d="M40 29L41 30L40 29z"/>
<path style="fill:#2b2721; stroke:none;" d="M5 30L6 31L5 30z"/>
<path style="fill:#352f29; stroke:none;" d="M13 30L14 31L13 30z"/>
<path style="fill:#010101; stroke:none;" d="M14 30L15 31L14 30M19 30L20 31L19 30z"/>
<path style="fill:#373129; stroke:none;" d="M20 30L21 31L20 30z"/>
<path style="fill:#1b1715; stroke:none;" d="M23 30L24 31L23 30z"/>
<path style="fill:#050303; stroke:none;" d="M29 30L30 31L29 30z"/>
<path style="fill:#5d5347; stroke:none;" d="M30 30L31 31L30 30z"/>
<path style="fill:#8b7d6b; stroke:none;" d="M37 30L38 31L37 30z"/>
<path style="fill:#13110d; stroke:none;" d="M38 30L39 31L38 30z"/>
<path style="fill:#010101; stroke:none;" d="M6 31L7 32L6 31z"/>
<path style="fill:#3b352f; stroke:none;" d="M7 31L8 32L7 31z"/>
<path style="fill:#25211d; stroke:none;" d="M15 31L16 32L15 31z"/>
<path style="fill:#010101; stroke:none;" d="M21 31L22 32L21 31M27 31L28 32L27 31z"/>
<path style="fill:#474137; stroke:none;" d="M28 31L29 32L28 31z"/>
<path style="fill:#1d1b17; stroke:none;" d="M36 31L37 32L36 31z"/>
<path style="fill:#030301; stroke:none;" d="M8 32L9 33L8 32z"/>
<path style="fill:#4d453b; stroke:none;" d="M9 32L10 33L9 32z"/>
<path style="fill:#191713; stroke:none;" d="M17 32L18 33L17 32z"/>
<path style="fill:#010101; stroke:none;" d="M25 32L26 33L25 32z"/>
<path style="fill:#352f29; stroke:none;" d="M26 32L27 33L26 32z"/>
<path style="fill:#2b2721; stroke:none;" d="M34 32L35 33L34 32z"/>
<path style="fill:#050505; stroke:none;" d="M10 33L11 34L10 33z"/>
<path style="fill:#63574b; stroke:none;" d="M11 33L12 34L11 33z"/>
<path style="fill:#837565; stroke:none;" d="M18 33L19 34L18 33z"/>
<path style="fill:#0f0d0b; stroke:none;" d="M19 33L20 34L19 33z"/>
<path style="fill:#27231f; stroke:none;" d="M24 33L25 34L24 33z"/>
<path style="fill:#3b352d; stroke:none;" d="M32 33L33 34L32 33z"/>
<path style="fill:#010101; stroke:none;" d="M33 33L34 34L33 33z"/>
<path style="fill:#0b0b09; stroke:none;" d="M12 34L13 35L12 34z"/>
<path style="fill:#796d5d; stroke:none;" d="M13 34L14 35L13 34z"/>
<path style="fill:#6f6355; stroke:none;" d="M20 34L21 35L20 34z"/>
<path style="fill:#1b1715; stroke:none;" d="M21.6667 34.3333C21.2222 34.7778 22.2778 34.7222 22.3333 34.6667C22.7778 34.2222 21.7222 34.2778 21.6667 34.3333z"/>
<path style="fill:#4b433b; stroke:none;" d="M30 34L31 35L30 34z"/>
<path style="fill:#030301; stroke:none;" d="M31 34L32 35L31 34z"/>
<path style="fill:#13110f; stroke:none;" d="M14 35L15 36L14 35z"/>
<path style="fill:#8d7f6d; stroke:none;" d="M15 35L16 36L15 35z"/>
<path style="fill:#61574b; stroke:none;" d="M28 35L29 36L28 35z"/>
<path style="fill:#050503; stroke:none;" d="M29 35L30 36L29 35z"/>
<path style="fill:#1f1d19; stroke:none;" d="M16 36L17 37L16 36z"/>
<path style="fill:#796d5d; stroke:none;" d="M26 36L27 37L26 36z"/>
<path style="fill:#0b0b09; stroke:none;" d="M27 36L28 37L27 36z"/>
<path style="fill:#2d2923; stroke:none;" d="M18 37L19 38L18 37z"/>
<path style="fill:#8d7d6d; stroke:none;" d="M24 37L25 38L24 37z"/>
<path style="fill:#13110f; stroke:none;" d="M25 37L26 38L25 37z"/>
<path style="fill:#010101; stroke:none;" d="M19 38L20 39L19 38z"/>
<path style="fill:#3d372f; stroke:none;" d="M20 38L21 39L20 38z"/>
<path style="fill:#1f1b17; stroke:none;" d="M23 38L24 39L23 38z"/>
<path style="fill:#010101; stroke:none;" d="M21 39L22 40L21 39z"/>
</svg>
